<?xml version="1.0" encoding="iso-8859-1"?>
<!-- Uploaded to: SVG Repo, www.svgrepo.com, Generator: SVG Repo Mixer Tools -->
<svg height="800px" width="800px" version="1.1" id="Layer_1" xmlns="http://www.w3.org/2000/svg" xmlns:xlink="http://www.w3.org/1999/xlink" 
	 viewBox="0 0 509 509" xml:space="preserve" h>
<circle style="fill:#F0582F;" cx="254.5" cy="254.5" r="254.5"/>
<path style="fill:#6EB1E1;" d="M381.2,221.3h88.5c16.8,0,29.4,15.4,26.1,31.9l-9.5,47.1c-2.5,12.4-13.4,21.3-26.1,21.3h-416
	c-8.3,0-16.2-3.9-21.2-10.5l-5.3-7c-4.5-5.9-6.3-13.3-5-20.6l6.2-35.9c1.3-7.4,5.6-13.9,11.9-17.9l15.8-10.1
	c3.1-1.9,5.7-4.5,7.7-7.5l35.9-52.8c5-7.3,13.2-11.6,22-11.6h176.9c7.4,0,14.4,3,19.4,8.4l53.3,56.8
	C366.9,218.2,373.9,221.3,381.2,221.3z"/>
<path style="fill:#80C3ED;" d="M469.7,221.3h-88.5c-7.4,0-14.4-3-19.4-8.4l-53.3-56.8c-5-5.4-12.1-8.4-19.4-8.4H112.3
	c-8.8,0-17,4.4-22,11.6l-35.9,52.8c-2,3-4.7,5.5-7.7,7.5l-15.8,10.1c-2.2,1.4-4.1,3.1-5.7,4.9h467.7
	C488.2,226.7,479.7,221.3,469.7,221.3z"/>
<path style="fill:#5AA6CC;" d="M15.4,300.3c0.7,1.3,1.5,2.6,2.4,3.8l5.3,7c5,6.6,12.9,10.5,21.2,10.5h416c12.6,0,23.5-8.9,26.1-21.3
	H15.4z"/>
<g>
	<path style="fill:#333842;" d="M152.8,318.2c0-28.1-22.8-50.9-51-50.9c-28.1,0-50.9,22.8-50.9,50.9c0,1.1,0.1,2.2,0.2,3.3h101.6
		C152.7,320.5,152.8,319.4,152.8,318.2z"/>
	<path style="fill:#333842;" d="M475.6,316.6c-0.9-27.4-23.3-49.3-50.9-49.3c-28.1,0-50.9,22.8-50.9,50.9c0,1.1,0.1,2.2,0.2,3.3
		h86.3C465.9,321.6,471.2,319.7,475.6,316.6z"/>
</g>
<g>
	<path style="fill:#4F5565;" d="M215.9,222.4h113.4c0,0,0,0-0.1-0.1l-42.5-56.8c-1.9-2.6-4.6-4-7.5-4h-63.3L215.9,222.4L215.9,222.4
		z"/>
	<path style="fill:#4F5565;" d="M195.1,161.5h-69.7c-3.4,0-6.6,2.1-8.5,5.6l-29.1,52.8c-0.5,0.9-1,1.7-1.5,2.5h108.8V161.5z"/>
</g>
<circle style="fill:#414753;" cx="424.7" cy="318.2" r="43.1"/>
<circle style="fill:#BDBDBE;" cx="424.7" cy="318.2" r="23.6"/>
<circle style="fill:#414753;" cx="101.9" cy="318.2" r="43.1"/>
<circle style="fill:#BDBDBE;" cx="101.9" cy="318.2" r="23.6"/>
<ellipse transform="matrix(0.1156 -0.9933 0.9933 0.1156 -244.1156 251.0222)" style="fill:#FBD303;" cx="18.907" cy="262.598" rx="12.5" ry="7.7"/>
<ellipse style="fill:#F1F3F7;" cx="491.3" cy="250.1" rx="6.5" ry="17.2"/>
</svg>